<svg width="25" height="25" viewBox="0 0 25 25" fill="none" xmlns="http://www.w3.org/2000/svg">
<path fill-rule="evenodd" clip-rule="evenodd" d="M12.337 0.520556C11.6138 0.612634 10.9646 0.887456 10.416 1.3338C10.3082 1.42151 9.17493 2.5401 7.89761 3.81955L5.57519 6.1458L6.04199 6.15967C6.47548 6.17254 6.60359 6.18753 6.91387 6.26163C7.29093 6.35172 7.72977 6.55456 8.03952 6.78198C8.1885 6.89135 8.89883 7.58146 10.2331 8.91309C11.3183 9.99622 12.2475 10.9039 12.2978 10.9301C12.4305 10.9992 12.6925 10.9922 12.8533 10.9152C12.9488 10.8694 13.4177 10.4156 14.8788 8.95508C15.9245 7.90975 16.8623 6.98813 16.9629 6.90704C17.2932 6.64088 17.7386 6.40684 18.1447 6.28614C18.4598 6.1925 18.8074 6.14695 19.3355 6.13019L19.8523 6.11376L17.4799 3.74431C16.175 2.44109 15.0271 1.31583 14.929 1.24371C14.3948 0.850913 13.793 0.60803 13.1609 0.530052C12.9507 0.504128 12.5063 0.499001 12.337 0.520556ZM3.0808 8.64651C1.39668 10.3378 1.36498 10.374 1.10433 10.9008C0.488659 12.1452 0.622838 13.5861 1.46037 14.7245C1.53261 14.8227 2.24527 15.56 3.04402 16.363L4.49634 17.8229L5.46335 17.8133C6.42718 17.8038 6.43112 17.8035 6.66004 17.7331C6.91844 17.6536 7.19093 17.5232 7.42351 17.3678C7.51974 17.3035 8.34264 16.5027 9.55355 15.2951L11.5268 13.3272L11.7751 13.2054C12.3063 12.9449 12.8536 12.9453 13.3955 13.2065C13.5843 13.2975 13.6644 13.3737 15.5908 15.2951C16.8201 16.521 17.6506 17.3295 17.747 17.3939C17.931 17.5168 18.1841 17.6476 18.3412 17.701C18.7 17.8228 18.7499 17.8274 19.8576 17.8389L20.9227 17.85L22.3801 16.3896C23.3378 15.4298 23.8975 14.8487 24.0128 14.6945C24.3234 14.2792 24.569 13.7152 24.6741 13.1759C24.7362 12.8578 24.7382 12.1884 24.678 11.8817C24.5736 11.3494 24.3461 10.8141 24.0414 10.3835C23.935 10.2332 23.4436 9.72006 22.4123 8.68214L20.9355 7.19594L19.864 7.20543C18.6953 7.21579 18.6504 7.22071 18.2441 7.38224C17.7804 7.56661 17.8234 7.52834 15.6823 9.66034C13.536 11.7975 13.5281 11.8045 13.1018 11.9526C12.8471 12.0412 12.4592 12.0628 12.2192 12.0019C12.0237 11.9522 11.7265 11.8172 11.5465 11.6963C11.4782 11.6503 10.5519 10.7444 9.48821 9.68318C7.5319 7.73138 7.44207 7.6488 7.07194 7.46113C6.91547 7.38182 6.70398 7.30989 6.48264 7.26073C6.34211 7.22953 6.09319 7.21815 5.40886 7.21163L4.51801 7.20316L3.0808 8.64651ZM12.4023 14.0875C12.3376 14.1057 12.2639 14.1324 12.2386 14.1468C12.2133 14.1613 11.3136 15.0499 10.2393 16.1216C9.16494 17.1933 8.21262 18.1227 8.12297 18.1869C7.47011 18.6545 6.86173 18.8574 6.018 18.8889L5.57947 18.9053L7.93895 21.2619C9.23666 22.5581 10.369 23.6716 10.4552 23.7363C11.0352 24.1718 11.6824 24.4221 12.4113 24.4928C13.0832 24.558 13.8868 24.3959 14.467 24.0781C14.9684 23.8035 14.9914 23.7822 17.4791 21.2943C18.7836 19.9896 19.8509 18.9166 19.8509 18.9096C19.8509 18.9027 19.5716 18.8917 19.2302 18.8851C18.7873 18.8765 18.5571 18.8609 18.4265 18.8306C17.8059 18.6867 17.2213 18.3877 16.813 18.0054C16.723 17.9211 15.8245 17.0266 14.8164 16.0178C13.4125 14.6128 12.9568 14.1718 12.8694 14.1334C12.7128 14.0648 12.5425 14.0481 12.4023 14.0875Z" fill="black"/>
</svg>
